<?xml version="1.0" encoding="UTF-8" standalone="no"?>
<!-- Created with Inkscape (http://www.inkscape.org/) -->

<svg
   width="391mm"
   height="200mm"
   viewBox="0 0 391 200"
   version="1.1"
   id="svg5"
   xml:space="preserve"
   xmlns="http://www.w3.org/2000/svg"
   xmlns:svg="http://www.w3.org/2000/svg"><defs
     id="defs2" /><g
     id="layer1"><path
       d="M 75.342323,99.709605 44.6725,118.82752"
       stroke="#d9d9d9"
       stroke-opacity="0.5"
       stroke-miterlimit="10"
       stroke-linecap="round"
       stroke-linejoin="round"
       id="path302"
       style="stroke:#000000;stroke-width:3.17835;stroke-dasharray:none;stroke-opacity:1" /><path
       d="M 75.342323,99.709605 V 61.463448"
       stroke="#d9d9d9"
       stroke-opacity="0.5"
       stroke-miterlimit="10"
       stroke-linecap="round"
       stroke-linejoin="round"
       id="path304"
       style="stroke:#000000;stroke-width:3.17835;stroke-dasharray:none;stroke-opacity:1" /><path
       d="M 44.672612,118.82752 13.993176,99.709605"
       stroke="#d9d9d9"
       stroke-opacity="0.5"
       stroke-miterlimit="10"
       stroke-linecap="round"
       stroke-linejoin="round"
       id="path306"
       style="stroke:#000000;stroke-width:3.17835;stroke-dasharray:none;stroke-opacity:1" /><path
       d="M 75.342323,61.463357 44.6725,42.345435"
       stroke="#d9d9d9"
       stroke-opacity="0.5"
       stroke-miterlimit="10"
       stroke-linecap="round"
       stroke-linejoin="round"
       id="path308"
       style="stroke:#000000;stroke-width:3.17835;stroke-dasharray:none;stroke-opacity:1" /><path
       d="M 68.18417,65.104414 45.335542,50.841159"
       stroke="#d9d9d9"
       stroke-opacity="0.5"
       stroke-miterlimit="10"
       stroke-linecap="round"
       stroke-linejoin="round"
       id="path310"
       style="stroke:#000000;stroke-width:3.17835;stroke-dasharray:none;stroke-opacity:1" /><path
       d="M 13.993176,99.709605 V 61.463448"
       stroke="#d9d9d9"
       stroke-opacity="0.5"
       stroke-miterlimit="10"
       stroke-linecap="round"
       stroke-linejoin="round"
       id="path312"
       style="stroke:#000000;stroke-width:3.17835;stroke-dasharray:none;stroke-opacity:1" /><path
       d="M 44.672612,42.345435 13.993176,61.463357"
       stroke="#d9d9d9"
       stroke-opacity="0.5"
       stroke-miterlimit="10"
       stroke-linecap="round"
       stroke-linejoin="round"
       id="path314"
       style="stroke:#000000;stroke-width:3.17835;stroke-dasharray:none;stroke-opacity:1" /><path
       d="m 44.6725,118.82765 v 38.23567"
       stroke="#d9d9d9"
       stroke-opacity="0.5"
       stroke-miterlimit="10"
       stroke-linecap="round"
       stroke-linejoin="round"
       id="path316"
       style="stroke:#000000;stroke-width:3.17835;stroke-dasharray:none;stroke-opacity:1" /><path
       d="M 44.672612,157.06332 13.993176,176.19207"
       stroke="#d9d9d9"
       stroke-opacity="0.5"
       stroke-miterlimit="10"
       stroke-linecap="round"
       stroke-linejoin="round"
       id="path318"
       style="stroke:#000000;stroke-width:3.17835;stroke-dasharray:none;stroke-opacity:1" /><path
       d="m 44.6725,157.06332 30.669823,19.12875"
       stroke="#d9d9d9"
       stroke-opacity="0.5"
       stroke-miterlimit="10"
       stroke-linecap="round"
       stroke-linejoin="round"
       id="path320"
       style="stroke:#000000;stroke-width:3.17835;stroke-dasharray:none;stroke-opacity:1" /><path
       d="m 51.821262,153.43285 26.768725,16.66976"
       stroke="#d9d9d9"
       stroke-opacity="0.5"
       stroke-miterlimit="10"
       stroke-linecap="round"
       stroke-linejoin="round"
       id="path322"
       style="stroke:#000000;stroke-width:3.17835;stroke-dasharray:none;stroke-opacity:1" /><path
       fill-rule="evenodd"
       clip-rule="evenodd"
       d="m 44.672612,118.82765 -20.744318,9.92765 1.181824,2.20965 1.181831,2.2294 z"
       stroke="#d9d9d9"
       stroke-opacity="0.5"
       stroke-miterlimit="10"
       stroke-linecap="round"
       stroke-linejoin="round"
       id="path324"
       style="stroke:#000000;stroke-width:3.17835;stroke-dasharray:none;stroke-opacity:1" /><path
       d="M 92.973726,91.234642 90.95597,87.437989"
       stroke="#d9d9d9"
       stroke-opacity="0.5"
       stroke-miterlimit="10"
       stroke-linecap="round"
       stroke-linejoin="round"
       id="path326"
       style="stroke:#000000;stroke-width:3.17835;stroke-dasharray:none;stroke-opacity:1" /><path
       d="m 86.997172,94.108118 -1.32597,-2.499954"
       stroke="#d9d9d9"
       stroke-opacity="0.5"
       stroke-miterlimit="10"
       stroke-linecap="round"
       stroke-linejoin="round"
       id="path328"
       style="stroke:#000000;stroke-width:3.17835;stroke-dasharray:none;stroke-opacity:1" /><path
       d="M 81.049694,96.97114 80.386657,95.747086"
       stroke="#d9d9d9"
       stroke-opacity="0.5"
       stroke-miterlimit="10"
       stroke-linecap="round"
       stroke-linejoin="round"
       id="path330"
       style="stroke:#000000;stroke-width:3.17835;stroke-dasharray:none;stroke-opacity:1" /><path
       d="M 136.68175,137.94568 75.342323,99.709605"
       stroke="#d9d9d9"
       stroke-opacity="0.5"
       stroke-miterlimit="10"
       stroke-linecap="round"
       stroke-linejoin="round"
       id="path332"
       style="stroke:#000000;stroke-width:3.17835;stroke-dasharray:none;stroke-opacity:1" /><path
       d="m 136.68175,137.94568 30.67909,-19.11803"
       stroke="#d9d9d9"
       stroke-opacity="0.5"
       stroke-miterlimit="10"
       stroke-linecap="round"
       stroke-linejoin="round"
       id="path334"
       style="stroke:#000000;stroke-width:3.17835;stroke-dasharray:none;stroke-opacity:1" /><path
       d="m 136.68175,137.94568 v 38.24639"
       stroke="#d9d9d9"
       stroke-opacity="0.5"
       stroke-miterlimit="10"
       stroke-linecap="round"
       stroke-linejoin="round"
       id="path336"
       style="stroke:#000000;stroke-width:3.17835;stroke-dasharray:none;stroke-opacity:1" /><path
       d="m 143.17707,142.83156 v 28.49563"
       stroke="#d9d9d9"
       stroke-opacity="0.5"
       stroke-miterlimit="10"
       stroke-linecap="round"
       stroke-linejoin="round"
       id="path338"
       style="stroke:#000000;stroke-width:3.17835;stroke-dasharray:none;stroke-opacity:1" /><path
       d="m 167.36199,118.82765 30.66879,19.11803"
       stroke="#d9d9d9"
       stroke-opacity="0.5"
       stroke-miterlimit="10"
       stroke-linecap="round"
       stroke-linejoin="round"
       id="path340"
       style="stroke:#000000;stroke-width:3.17835;stroke-dasharray:none;stroke-opacity:1" /><path
       d="m 168.02377,127.35424 22.84874,14.23175"
       stroke="#d9d9d9"
       stroke-opacity="0.5"
       stroke-miterlimit="10"
       stroke-linecap="round"
       stroke-linejoin="round"
       id="path342"
       style="stroke:#000000;stroke-width:3.17835;stroke-dasharray:none;stroke-opacity:1" /><path
       d="m 136.68175,176.19207 30.67909,19.11764"
       stroke="#d9d9d9"
       stroke-opacity="0.5"
       stroke-miterlimit="10"
       stroke-linecap="round"
       stroke-linejoin="round"
       id="path344"
       style="stroke:#000000;stroke-width:3.17835;stroke-dasharray:none;stroke-opacity:1" /><path
       d="m 198.03078,137.94568 v 38.24639"
       stroke="#d9d9d9"
       stroke-opacity="0.5"
       stroke-miterlimit="10"
       stroke-linecap="round"
       stroke-linejoin="round"
       id="path346"
       style="stroke:#000000;stroke-width:3.17835;stroke-dasharray:none;stroke-opacity:1" /><path
       d="m 167.36199,195.30971 30.66879,-19.11764"
       stroke="#d9d9d9"
       stroke-opacity="0.5"
       stroke-miterlimit="10"
       stroke-linecap="round"
       stroke-linejoin="round"
       id="path348"
       style="stroke:#000000;stroke-width:3.17835;stroke-dasharray:none;stroke-opacity:1" /><path
       d="M 168.02377,186.81435 190.87251,172.5505"
       stroke="#d9d9d9"
       stroke-opacity="0.5"
       stroke-miterlimit="10"
       stroke-linecap="round"
       stroke-linejoin="round"
       id="path350"
       style="stroke:#000000;stroke-width:3.17835;stroke-dasharray:none;stroke-opacity:1" /><path
       d="m 136.68175,176.19207 -18.29412,11.40987"
       stroke="#d9d9d9"
       stroke-opacity="0.5"
       stroke-miterlimit="10"
       stroke-linecap="round"
       stroke-linejoin="round"
       id="path352"
       style="stroke:#000000;stroke-width:3.17835;stroke-dasharray:none;stroke-opacity:1" /><path
       d="M 167.36199,118.82765 V 96.562576"
       stroke="#d9d9d9"
       stroke-opacity="0.5"
       stroke-miterlimit="10"
       stroke-linecap="round"
       stroke-linejoin="round"
       id="path354"
       style="stroke:#000000;stroke-width:3.17835;stroke-dasharray:none;stroke-opacity:1" /><path
       d="m 198.03078,176.19207 30.74665,19.11764"
       stroke="#d9d9d9"
       stroke-opacity="0.5"
       stroke-miterlimit="10"
       stroke-linecap="round"
       stroke-linejoin="round"
       id="path356"
       style="stroke:#000000;stroke-width:3.17835;stroke-dasharray:none;stroke-opacity:1" /><path
       d="m 228.77743,195.30971 30.69856,-19.11764"
       stroke="#d9d9d9"
       stroke-opacity="0.5"
       stroke-miterlimit="10"
       stroke-linecap="round"
       stroke-linejoin="round"
       id="path358"
       style="stroke:#000000;stroke-width:3.17835;stroke-dasharray:none;stroke-opacity:1" /><path
       d="m 259.47599,176.19207 30.69854,19.11764"
       stroke="#d9d9d9"
       stroke-opacity="0.5"
       stroke-miterlimit="10"
       stroke-linecap="round"
       stroke-linejoin="round"
       id="path360"
       style="stroke:#000000;stroke-width:3.17835;stroke-dasharray:none;stroke-opacity:1" /><path
       d="m 290.17453,195.30971 30.69858,-19.11764"
       stroke="#d9d9d9"
       stroke-opacity="0.5"
       stroke-miterlimit="10"
       stroke-linecap="round"
       stroke-linejoin="round"
       id="path362"
       style="stroke:#000000;stroke-width:3.17835;stroke-dasharray:none;stroke-opacity:1" /><path
       d="m 320.87311,176.19207 30.69857,19.11764"
       stroke="#d9d9d9"
       stroke-opacity="0.5"
       stroke-miterlimit="10"
       stroke-linecap="round"
       stroke-linejoin="round"
       id="path364"
       style="stroke:#000000;stroke-width:3.17835;stroke-dasharray:none;stroke-opacity:1" /><path
       d="M 44.6725,42.345435 V 4.1095017"
       stroke="#d9d9d9"
       stroke-opacity="0.5"
       stroke-miterlimit="10"
       stroke-linecap="round"
       stroke-linejoin="round"
       id="path366"
       style="stroke:#000000;stroke-width:3.17835;stroke-dasharray:none;stroke-opacity:1" /><path
       d="m 378.51388,173.49593 c 0,1.26008 -0.61566,2.35438 -1.55384,2.91813 l -23.16124,14.72328 c -0.46907,0.39805 -1.05544,0.59692 -1.67112,0.59692 -0.61569,0 -1.20203,-0.19902 -1.67113,-0.59692 l -23.16122,-14.72328 c -0.47027,-0.27875 -0.86431,-0.69906 -1.13756,-1.21367 -0.27435,-0.51466 -0.41841,-1.10363 -0.41619,-1.70446 v -29.84458 c 0,-1.26008 0.61567,-2.35438 1.55388,-2.91813 l 23.16125,-14.72332 c 0.46905,-0.39806 1.05539,-0.59688 1.6711,-0.59688 0.61571,0 1.20205,0.19902 1.67112,0.59688 l 23.16123,14.72332 c 0.9382,0.56375 1.55384,1.65805 1.55384,2.91813 z"
       fill="#6a9f7f"
       id="path1687"
       style="stroke-width:1.24722" /><path
       d="m 316.78162,173.05699 c 0,1.26008 -0.61565,2.35438 -1.55386,2.91813 l -23.16123,14.72328 c -0.46907,0.39805 -1.05542,0.59692 -1.67112,0.59692 -0.61569,0 -1.20204,-0.19902 -1.67111,-0.59692 l -23.16123,-14.72328 c -0.47028,-0.27875 -0.86432,-0.69906 -1.13757,-1.21367 -0.27436,-0.51466 -0.41841,-1.10363 -0.41619,-1.70446 v -29.84458 c 0,-1.26008 0.61569,-2.35438 1.55388,-2.91813 l 23.16124,-14.72332 c 0.46906,-0.39806 1.0554,-0.59688 1.67112,-0.59688 0.61569,0 1.20204,0.19902 1.67111,0.59688 l 23.16124,14.72332 c 0.93819,0.56375 1.55384,1.65805 1.55384,2.91813 z"
       fill="#6a9f7f"
       id="path1689"
       style="stroke-width:1.24722" /><path
       d="m 193.9863,172.10518 c 0,1.26008 -0.61567,2.35438 -1.55383,2.91813 l -23.16127,14.72328 c -0.46909,0.39805 -1.05542,0.59692 -1.67113,0.59692 -0.61565,0 -1.202,-0.19902 -1.6711,-0.59692 l -23.16125,-14.72328 c -0.47026,-0.27875 -0.8643,-0.69906 -1.13752,-1.21367 -0.27435,-0.51466 -0.41885,-1.10363 -0.4162,-1.70446 V 142.2606 c 0,-1.26008 0.61568,-2.35438 1.55385,-2.91813 l 23.16124,-14.72332 c 0.46911,-0.39806 1.05548,-0.59688 1.67111,-0.59688 0.61571,0 1.20206,0.19902 1.67113,0.59688 l 23.16127,14.72332 c 0.93817,0.56375 1.55386,1.65805 1.55386,2.91813 z"
       fill="#6a9f7f"
       id="path1691"
       style="stroke-width:1.24722" /><path
       d="m 255.47649,172.79614 c 0,1.26008 -0.6157,2.35438 -1.55384,2.91813 l -23.16127,14.72328 c -0.46907,0.39805 -1.05543,0.59692 -1.67112,0.59692 -0.61566,0 -1.20201,-0.19902 -1.67111,-0.59692 L 204.2579,175.71427 c -0.47026,-0.27875 -0.8643,-0.69906 -1.1375,-1.21367 -0.27438,-0.51466 -0.41886,-1.10363 -0.41621,-1.70446 v -29.84458 c 0,-1.26008 0.61567,-2.35438 1.55384,-2.91813 l 23.16124,-14.72332 c 0.46912,-0.39806 1.05547,-0.59688 1.67111,-0.59688 0.61571,0 1.20206,0.19902 1.67113,0.59688 l 23.16127,14.72332 c 0.93817,0.56375 1.55384,1.65805 1.55384,2.91813 z"
       fill="#6a9f7f"
       id="path1693"
       style="stroke-width:1.24722" /></g></svg>
